<?xml version="1.0" encoding="iso-8859-1"?>
<!-- Generator: Adobe Illustrator 19.2.0, SVG Export Plug-In . SVG Version: 6.00 Build 0)  -->
<svg version="1.1"  xmlns="http://www.w3.org/2000/svg" xmlns:xlink="http://www.w3.org/1999/xlink" x="0px" y="0px"
	 viewBox="0 0 48 48" style="enable-background:new 0 0 48 48;" xml:space="preserve">
<path style="fill:#455A64;" d="M37.086,37c0-5.224,0-5.338,0-10c0-8.667,0.747-16.042,0.911-19.229
	c0.054-1.037-0.693-1.933-1.728-2.077C34.151,5.4,30.142,5,24,5S13.849,5.4,11.731,5.694c-1.035,0.144-1.781,1.04-1.728,2.077
	c0.164,3.187,0.911,10.386,0.911,19.229c0,5,0,4.777,0,10L24,40L37.086,37z"/>
<path style="fill:#37474F;" d="M24.001,43C8.157,43,3.936,34.014,3.764,33.972c-0.537-0.131-0.865-0.673-0.734-1.209
	c0.131-0.536,0.675-0.864,1.209-0.734C4.276,32.037,8.527,35,24,35s19.726-2.963,19.768-2.973c0.535-0.122,1.075,0.204,1.204,0.739
	c0.128,0.536-0.198,1.074-0.733,1.205C44.067,34.014,39.846,43,24.001,43z"/>
<path style="fill:none;stroke:#607D8B;stroke-width:2;stroke-linecap:round;stroke-miterlimit:10;" d="M44,33c0,0-4.094,10-20,10
	S4,33,4,33"/>
<rect x="19" y="31" style="fill:#263238;" width="10" height="5"/>
<path style="fill:#FF8F00;" d="M30.5,32L30.5,32c-1.925,0-3.5-1.575-3.5-3.5v-6c0-1.925,1.575-3.5,3.5-3.5h0
	c1.925,0,3.5,1.575,3.5,3.5v6C34,30.425,32.425,32,30.5,32z"/>
<circle style="fill:#FFD54F;" cx="30.5" cy="22.5" r="2.5"/>
<rect x="30" y="19.5" transform="matrix(0.7071 -0.7071 0.7071 0.7071 -6.9767 28.1569)" style="fill:#FF8F00;" width="1" height="6"/>
<g>
	<g>
		<polygon style="fill:#FF8F00;" points="20.333,16 20.333,17 17.667,17 17.667,16 18.333,13 19.556,13 		"/>
		<polygon style="fill:#FF8F00;" points="20.333,24 20.333,23 17.667,23 17.667,24 18.333,27 19.556,27 		"/>
		<polygon style="fill:#FF8F00;" points="15,21.333 16,21.333 16,18.667 15,18.667 12,19.333 12,20.556 		"/>
		<polygon style="fill:#FF8F00;" points="23,21.333 22,21.333 22,18.667 23,18.667 26,19.333 26,20.556 		"/>
		<polygon style="fill:#FF8F00;" points="17.114,16.229 17.821,16.936 15.936,18.821 15.229,18.114 13.579,15.522 14.443,14.657 		
			"/>
		<polygon style="fill:#FF8F00;" points="22.771,21.886 22.064,21.179 20.179,23.064 20.886,23.771 23.478,25.421 24.343,24.557 		
			"/>
		<polygon style="fill:#FF8F00;" points="17.114,23.771 17.821,23.064 15.936,21.179 15.229,21.886 13.579,24.478 14.443,25.343 		
			"/>
		<polygon style="fill:#FF8F00;" points="22.771,18.114 22.064,18.821 20.179,16.936 20.886,16.229 23.478,14.579 24.343,15.443 		
			"/>
		<path style="fill:#FF8F00;" d="M19,15c-2.761,0-5,2.239-5,5c0,2.761,2.239,5,5,5c2.761,0,5-2.239,5-5C24,17.239,21.761,15,19,15z"
			/>
	</g>
</g>
<circle style="fill:#FFD54F;" cx="19" cy="20" r="3"/>
<rect x="18.5" y="15.5" transform="matrix(0.7071 0.7071 -0.7071 0.7071 19.7071 -7.5772)" style="fill:#FF8F00;" width="1" height="9"/>
<path style="fill:#FFA000;" d="M15.94,24c3.866,0,7,3.134,7,7s-3.134,7-7,7C11.368,38,7,35.125,7,31C7,27.031,10.252,24,15.94,24z"
	/>
<path style="fill:#FFA000;" d="M18,27v6h3.6c0-1.105,1.075-2,2.4-2s2.4,0.895,2.4,2H30v-6H18z"/>
<circle style="fill:#FFD54F;" cx="16" cy="31" r="7"/>
<circle style="fill:#424242;" cx="16" cy="31" r="4"/>
<path style="fill:none;stroke:#757575;stroke-linecap:round;stroke-miterlimit:10;" d="M13.5,31c0-1.381,1.119-2.5,2.5-2.5"/>
<g>
	<g>
		<circle style="fill:#FFA000;" cx="15.5" cy="25.5" r="0.5"/>
		<circle style="fill:#FFA000;" cx="16.5" cy="36.5" r="0.5"/>
		<circle style="fill:#FFA000;" cx="10.5" cy="31.5" r="0.5"/>
		<circle style="fill:#FFA000;" cx="21.5" cy="30.5" r="0.5"/>
		
			<ellipse transform="matrix(0.7071 -0.7071 0.7071 0.7071 -15.9767 16.3579)" style="fill:#FFA000;" cx="11.757" cy="27.464" rx="0.5" ry="0.5"/>
		
			<ellipse transform="matrix(0.7071 -0.7071 0.7071 0.7071 -18.4914 24.4289)" style="fill:#FFA000;" cx="20.243" cy="34.536" rx="0.5" ry="0.5"/>
		
			<ellipse transform="matrix(0.7071 -0.7071 0.7071 0.7071 -21.2696 19.136)" style="fill:#FFA000;" cx="12.464" cy="35.243" rx="0.5" ry="0.5"/>
		
			<ellipse transform="matrix(0.7071 -0.7071 0.7071 0.7071 -13.1985 21.6508)" style="fill:#FFA000;" cx="19.536" cy="26.757" rx="0.5" ry="0.5"/>
	</g>
</g>
<path style="fill:#FFA000;" d="M32.06,24c-3.866,0-7,3.134-7,7s3.134,7,7,7c4.572,0,8.94-3.094,8.94-7C41,27.031,37.748,24,32.06,24
	z"/>
<circle style="fill:#FFD54F;" cx="32" cy="31" r="7"/>
<circle style="fill:#424242;" cx="32" cy="31" r="4"/>
<path style="fill:none;stroke:#757575;stroke-linecap:round;stroke-miterlimit:10;" d="M29.5,31c0-1.381,1.119-2.5,2.5-2.5"/>
<g>
	<g>
		<circle style="fill:#FFA000;" cx="32.5" cy="25.5" r="0.5"/>
		<circle style="fill:#FFA000;" cx="31.5" cy="36.5" r="0.5"/>
		<circle style="fill:#FFA000;" cx="37.5" cy="31.5" r="0.5"/>
		<circle style="fill:#FFA000;" cx="26.5" cy="30.5" r="0.5"/>
		
			<ellipse transform="matrix(0.7071 -0.7071 0.7071 0.7071 -8.8051 33.6716)" style="fill:#FFA000;" cx="36.243" cy="27.464" rx="0.5" ry="0.5"/>
		
			<ellipse transform="matrix(0.7071 -0.7071 0.7071 0.7071 -16.2904 29.7426)" style="fill:#FFA000;" cx="27.757" cy="34.536" rx="0.5" ry="0.5"/>
		
			<ellipse transform="matrix(0.7071 -0.7071 0.7071 0.7071 -14.5122 35.4497)" style="fill:#FFA000;" cx="35.536" cy="35.243" rx="0.5" ry="0.5"/>
		
			<ellipse transform="matrix(0.7071 -0.7071 0.7071 0.7071 -10.5833 27.9645)" style="fill:#FFA000;" cx="28.464" cy="26.757" rx="0.5" ry="0.5"/>
	</g>
</g>
<g>
	<g>
		<path style="fill:#FF8F00;" d="M29.5,8.5c-2.209,0-4,1.791-4,4c0,2.209,1.791,4,4,4c2.209,0,4-1.791,4-4
			C33.5,10.291,31.709,8.5,29.5,8.5z"/>
		<polygon style="fill:#FF8F00;" points="30.6,9.475 30.6,10.3 28.4,10.3 28.4,9.475 28.95,7 29.958,7 		"/>
		<polygon style="fill:#FF8F00;" points="30.6,15.525 30.6,14.7 28.4,14.7 28.4,15.525 28.95,18 29.958,18 		"/>
		<polygon style="fill:#FF8F00;" points="26.475,13.6 27.3,13.6 27.3,11.4 26.475,11.4 24,11.95 24,12.958 		"/>
		<polygon style="fill:#FF8F00;" points="32.525,13.6 31.7,13.6 31.7,11.4 32.525,11.4 35,11.95 35,12.958 		"/>
		<polygon style="fill:#FF8F00;" points="32.418,13.859 31.834,13.276 30.279,14.833 30.863,15.416 33.003,16.776 33.715,16.062 		
			"/>
		<polygon style="fill:#FF8F00;" points="28.137,9.584 28.721,10.167 27.166,11.724 26.582,11.141 25.22,9.002 25.932,8.289 		"/>
		<polygon style="fill:#FF8F00;" points="26.584,13.863 27.167,13.279 28.724,14.834 28.141,15.418 26.002,16.78 25.289,16.068 		
			"/>
		<polygon style="fill:#FF8F00;" points="30.859,9.582 30.276,10.166 31.833,11.721 32.416,11.137 33.776,8.997 33.062,8.285 		"/>
	</g>
</g>
<circle style="fill:#FFD54F;" cx="29.5" cy="12.5" r="2.5"/>
<rect x="29" y="9" style="fill:#FF8F00;" width="1" height="7"/>
</svg>
